<?xml version="1.0" encoding="utf-8"?>
<!-- Generator: Adobe Illustrator 24.1.2, SVG Export Plug-In . SVG Version: 6.00 Build 0)  -->
<svg version="1.1" id="Layer_1" xmlns="http://www.w3.org/2000/svg" xmlns:xlink="http://www.w3.org/1999/xlink" x="0px" y="0px"
	 viewBox="0 0 35 35" style="enable-background:new 0 0 35 35;" xml:space="preserve">
<style type="text/css">
	.st0{fill-rule:evenodd;clip-rule:evenodd;fill:#FFFFFF;}
</style>
<path class="st0" d="M10.25,17.5c0-0.83,0.67-1.5,1.5-1.5s1.5,0.67,1.5,1.5c0,0.83-0.67,1.5-1.5,1.5S10.25,18.33,10.25,17.5z
	 M34.48,18.22L34.48,18.22c-0.1,2.31-0.65,4.53-1.64,6.6l-0.03,0.01c-0.21,0.41-0.67,0.65-1.13,0.52L27,24.1
	c-0.26-0.07-0.47-0.24-0.61-0.47c-0.13-0.23-0.17-0.5-0.1-0.76l1.66-6.18c0.07-0.26,0.24-0.47,0.47-0.61
	c0.23-0.13,0.5-0.17,0.76-0.1l3.31,0.89C32.16,8.89,25.56,2.5,17.5,2.5C9.44,2.5,2.84,8.9,2.51,16.88l3.31-0.89
	c0.25-0.07,0.53-0.03,0.76,0.1s0.4,0.35,0.47,0.61l1.66,6.18C8.85,23.42,8.54,23.96,8,24.1l-3.47,0.93
	c2.67,4.57,7.63,7.46,12.97,7.46c0.55,0,1,0.45,1,1s-0.45,1-1,1c-6.51,0-12.53-3.8-15.34-9.67c-0.99-2.07-1.54-4.29-1.64-6.6
	c0,0,0,0,0,0s0,0,0,0C0.51,17.98,0.5,17.74,0.5,17.5c0-9.37,7.63-17,17-17s17,7.63,17,17C34.5,17.74,34.49,17.98,34.48,18.22z
	 M29.62,18.18l-1.14,4.25l2.89,0.77c0.56-1.36,0.91-2.8,1.05-4.27L29.62,18.18z M3.63,23.21l2.89-0.77l-1.14-4.25l-2.81,0.75
	C2.71,20.41,3.06,21.84,3.63,23.21z M16,17.5c0-0.83,0.67-1.5,1.5-1.5c0.83,0,1.5,0.67,1.5,1.5c0,0.83-0.67,1.5-1.5,1.5
	C16.67,19,16,18.33,16,17.5z M23.25,16c0.83,0,1.5,0.67,1.5,1.5c0,0.83-0.67,1.5-1.5,1.5c-0.83,0-1.5-0.67-1.5-1.5
	C21.75,16.67,22.43,16,23.25,16z"/>
</svg>
