<svg width="116" height="119" viewBox="0 0 116 119" fill="none" xmlns="http://www.w3.org/2000/svg">
<ellipse cx="58" cy="59.5" rx="58" ry="59.5" fill="#3379FB"/>
<path d="M29.8358 36.4567C29.7505 35.5973 29.3848 34.9297 28.7385 34.4538C28.0922 33.978 27.215 33.7401 26.1071 33.7401C25.3542 33.7401 24.7186 33.8466 24.2001 34.0597C23.6816 34.2656 23.2839 34.5533 23.0069 34.9226C22.737 35.2919 22.6021 35.7109 22.6021 36.1797C22.5879 36.5703 22.6696 36.9112 22.8471 37.2024C23.0318 37.4936 23.2839 37.7457 23.6035 37.9588C23.9231 38.1648 24.2924 38.3459 24.7115 38.5021C25.1305 38.6513 25.5779 38.7791 26.0538 38.8857L28.014 39.3544C28.9657 39.5675 29.8393 39.8516 30.6348 40.2067C31.4302 40.5618 32.1191 40.9986 32.7015 41.517C33.2839 42.0355 33.7349 42.6463 34.0545 43.3494C34.3812 44.0526 34.5481 44.8587 34.5552 45.7678C34.5481 47.103 34.2072 48.2607 33.5325 49.2408C32.8649 50.2138 31.899 50.9702 30.6348 51.5099C29.3777 52.0426 27.8613 52.3089 26.0858 52.3089C24.3244 52.3089 22.7903 52.0391 21.4835 51.4993C20.1838 50.9595 19.1681 50.1605 18.4366 49.1023C17.7122 48.0369 17.3322 46.7195 17.2967 45.1499H21.7605C21.8102 45.8814 22.0197 46.4922 22.389 46.9822C22.7654 47.4652 23.2662 47.831 23.8912 48.0795C24.5233 48.321 25.237 48.4418 26.0325 48.4418C26.8137 48.4418 27.492 48.3281 28.0673 48.1009C28.6497 47.8736 29.1007 47.5575 29.4203 47.1527C29.7399 46.7479 29.8997 46.2827 29.8997 45.7571C29.8997 45.267 29.7541 44.8551 29.4629 44.5213C29.1788 44.1875 28.7598 43.9034 28.2058 43.669C27.6589 43.4347 26.9877 43.2216 26.1923 43.0298L23.8166 42.4332C21.9771 41.9858 20.5247 41.2862 19.4593 40.3345C18.394 39.3828 17.8649 38.1009 17.872 36.4886C17.8649 35.1676 18.2164 34.0135 18.9267 33.0263C19.644 32.0391 20.6277 31.2685 21.8777 30.7145C23.1277 30.1605 24.5481 29.8835 26.139 29.8835C27.7583 29.8835 29.1717 30.1605 30.3791 30.7145C31.5936 31.2685 32.5382 32.0391 33.2129 33.0263C33.8876 34.0135 34.2356 35.157 34.2569 36.4567H29.8358ZM37.658 52V30.1818H42.271V39.8018H42.5586L50.4102 30.1818H55.9393L47.8427 39.951L56.0352 52H50.5167L44.5401 43.0298L42.271 45.7997V52H37.658ZM62.9545 30.1818V52H58.3416V30.1818H62.9545ZM66.7498 52V30.1818H71.3627V48.1967H80.7164V52H66.7498ZM83.7713 52V30.1818H88.3842V48.1967H97.7379V52H83.7713ZM58.1246 92.1932L55.653 89.7429L62.1409 83.255H46.9385V79.6541H62.1409L55.653 73.1768L58.1246 70.7159L68.8632 81.4545L58.1246 92.1932Z" fill="white"/>
</svg>
